<?xml version="1.0" encoding="UTF-8" standalone="no"?>
<svg
   inkscape:export-ydpi="100"
   inkscape:export-xdpi="100"
   inkscape:export-filename="logo_student.png"
   sodipodi:docname="logo-student.svg"
   inkscape:version="1.2.2 (b0a8486541, 2022-12-01)"
   id="svg8"
   version="1.1"
   viewBox="0 0 5.2916663 5.2916667"
   height="20"
   width="20"
   xmlns:inkscape="http://www.inkscape.org/namespaces/inkscape"
   xmlns:sodipodi="http://sodipodi.sourceforge.net/DTD/sodipodi-0.dtd"
   xmlns="http://www.w3.org/2000/svg"
   xmlns:svg="http://www.w3.org/2000/svg"
   xmlns:rdf="http://www.w3.org/1999/02/22-rdf-syntax-ns#"
   xmlns:cc="http://creativecommons.org/ns#"
   xmlns:dc="http://purl.org/dc/elements/1.1/">
  <defs
     id="defs2" />
  <sodipodi:namedview
     inkscape:snap-global="true"
     inkscape:snap-object-midpoints="true"
     inkscape:document-rotation="0"
     inkscape:window-maximized="1"
     inkscape:window-y="0"
     inkscape:window-x="0"
     inkscape:window-height="1037"
     inkscape:window-width="1916"
     fit-margin-bottom="1"
     fit-margin-right="1"
     fit-margin-top="1"
     fit-margin-left="1"
     showgrid="false"
     inkscape:current-layer="layer1"
     inkscape:document-units="mm"
     inkscape:cy="-4.0951847"
     inkscape:cx="12.85433"
     inkscape:zoom="13.186218"
     inkscape:pageshadow="2"
     inkscape:pageopacity="0.0"
     borderopacity="1.0"
     bordercolor="#666666"
     pagecolor="#ffffff"
     id="base"
     inkscape:pagecheckerboard="0"
     inkscape:showpageshadow="2"
     inkscape:deskcolor="#d1d1d1" />
  <metadata
     id="metadata5">
    <rdf:RDF>
      <cc:Work
         rdf:about="">
        <dc:format>image/svg+xml</dc:format>
        <dc:type
           rdf:resource="http://purl.org/dc/dcmitype/StillImage" />
      </cc:Work>
    </rdf:RDF>
  </metadata>
  <g
     transform="matrix(0.1036131,0,0,0.1036131,-9.2954631,-6.5622301)"
     id="layer1"
     inkscape:label="Calque 1"
     inkscape:groupmode="layer">
    <g
       id="g10110"
       transform="translate(-23.266454,-103.42171)"
       inkscape:label="student">
      <g
         id="g65277"
         inkscape:label="body"
         transform="translate(-0.29378195,1.4328683)">
        <path
           id="path1364"
           style="fill:#0de99d;fill-opacity:1;stroke-width:0.264583;stroke-linecap:round;stroke-linejoin:round;stroke-miterlimit:10"
           d="m 125.93424,182.14509 c -0.69833,3.97503 0.68471,8.18335 2.27778,11.89154 1.62991,3.79394 5.66949,6.23883 7.22069,10.06562 1.05859,2.61154 -1.48883,7.6825 1.24609,8.36147 2.03779,0.5059 1.63513,-5.03666 3.73447,-5.07252 2.06986,-0.0353 1.89212,5.54321 3.85066,4.87262 2.35536,-0.80646 -0.6061,-5.07169 0.0673,-7.46849 1.34824,-4.79875 6.12636,-8.09657 7.67255,-12.83525 0.92733,-2.84204 1.63862,-6.05417 0.82411,-8.93058 -1.21715,-4.29836 -3.92922,-8.98268 -8.04559,-10.71842 -4.36016,-1.83853 -10.12342,-0.77482 -14.07821,1.82341 -2.59733,1.7064 -4.23213,4.94976 -4.76985,8.0106 z"
           sodipodi:nodetypes="aaaaaaaaaaaa"
           inkscape:label="body" />
        <path
           style="fill:#0de99d;fill-opacity:1;stroke:none;stroke-width:0.264583px;stroke-linecap:butt;stroke-linejoin:miter;stroke-opacity:1"
           d="m 131.65785,174.56159 c 0,0 -6.05815,-2.12224 -8.4929,-0.66111 -3.03605,1.82197 -3.93265,6.20694 -4.25467,9.73305 -0.29438,3.22344 3.31233,6.41033 2.21341,9.45493 -0.9873,2.73538 -8.30938,2.69266 -6.95549,5.26638 0.47745,0.90762 2.00607,-0.50386 2.91998,-0.96915 2.39048,-1.21705 5.56816,-2.18582 6.54315,-4.68482 1.16012,-2.97352 -2.23947,-6.1951 -1.95344,-9.37408 0.22977,-2.55365 0.56256,-6.0495 2.88816,-7.12908 1.4361,-0.66666 4.51372,1.47908 4.51372,1.47908"
           id="path10103"
           sodipodi:nodetypes="caaaaaaaac"
           inkscape:label="antenae" />
        <path
           style="fill:#0de99d;fill-opacity:1;stroke:none;stroke-width:0.264583px;stroke-linecap:butt;stroke-linejoin:miter;stroke-opacity:1"
           d="m 145.68772,172.82303 c 0,0 6.05815,-2.12224 8.4929,-0.66111 3.03605,1.82197 3.93265,6.20694 4.25467,9.73305 0.29438,3.22344 -3.31233,6.41033 -2.21341,9.45493 0.9873,2.73538 8.30938,2.69266 6.95549,5.26638 -0.47745,0.90762 -2.00607,-0.50386 -2.91998,-0.96915 -2.39048,-1.21705 -5.56816,-2.18582 -6.54315,-4.68482 -1.16012,-2.97352 2.23947,-6.1951 1.95344,-9.37408 -0.22977,-2.55365 -0.56256,-6.0495 -2.88816,-7.12908 -1.4361,-0.66666 -4.51372,1.47908 -4.51372,1.47908"
           id="path4975"
           sodipodi:nodetypes="caaaaaaaac"
           inkscape:label="antenae2" />
      </g>
      <g
         id="g65222"
         inkscape:label="arm2"
         transform="translate(-0.29378195,1.4328683)">
        <path
           id="path1190-5"
           style="fill:#000000;fill-opacity:0.2;stroke:none;stroke-width:3.77953;stroke-linecap:round;stroke-linejoin:round;stroke-miterlimit:4;stroke-dasharray:none;stroke-opacity:1"
           d="m 321.57031,144.40039 c -5.14568,0.97813 -7.839,6.72884 -9.57031,12.34766 3.54158,4.3577 7.53193,8.46217 11.1543,12.76953 1.46243,-6.37766 10.25596,-11.25257 8.6875,-17.60547 z"
           transform="matrix(0.26458333,0,0,0.26458333,47.620694,155.65396)"
           inkscape:label="shadow" />
        <path
           sodipodi:nodetypes="caaaaac"
           d="m 132.8153,192.48504 c -1.78446,0.3292 -2.46886,2.82907 -2.92096,4.58248 -0.36042,1.39787 -0.33661,3.01248 0.27215,4.32256 0.46034,0.99073 1.27526,2.32657 2.36795,2.26993 0.40374,-0.0209 0.64991,-0.54338 0.78185,-0.92459 0.38892,-1.12338 -0.37872,-2.40236 -0.12716,-3.56416 0.36904,-1.70445 2.74188,-2.98826 2.33292,-4.68419"
           style="fill:#0de99d;fill-opacity:1;stroke:none;stroke-width:1;stroke-linecap:round;stroke-linejoin:round;stroke-miterlimit:4;stroke-dasharray:none;stroke-opacity:1"
           id="path1134-7"
           inkscape:label="arm" />
      </g>
      <g
         id="g65218"
         inkscape:label="eye"
         transform="translate(-0.29378195,1.4328683)">
        <circle
           style="fill:#f6ff99;fill-opacity:1;stroke:none;stroke-width:1;stroke-linecap:round;stroke-linejoin:round;stroke-miterlimit:4;stroke-dasharray:none;stroke-opacity:1"
           id="path1152-3"
           cx="138.79277"
           cy="183.61404"
           r="7.772296"
           inkscape:label="iris" />
        <ellipse
           style="fill:#056141;fill-opacity:1;stroke:none;stroke-width:1;stroke-linecap:round;stroke-linejoin:round;stroke-miterlimit:4;stroke-dasharray:none;stroke-opacity:1"
           id="ellipse1404-6"
           cx="139.00076"
           cy="185.6743"
           rx="3.0767593"
           ry="3.0775146"
           inkscape:label="pupil" />
      </g>
      <g
         id="g59531"
         inkscape:label="shadows"
         transform="translate(-0.29378195,1.4328683)">
        <path
           id="path16983"
           style="fill:#0ac282;fill-opacity:1;stroke:none;stroke-width:0.999999px;stroke-linecap:butt;stroke-linejoin:miter;stroke-opacity:1"
           d="m 398.77539,118.25 c -3.6388,1.5355 -7.08419,6.06352 -10.16797,8.72656 -8.98677,7.76062 -18.14917,16.45165 -22.78125,27.38477 -3.86188,9.11512 -6.41989,20.1698 -3.18945,29.52734 0.4936,1.42979 1.39604,2.81401 2.54101,3.91602 0.0531,-0.72175 0.15765,-1.41878 0.3418,-2.07422 5.09571,-18.13701 23.15613,-30.5998 29,-48.50977 1.97049,-6.03905 3.68126,-12.52144 4.25586,-18.9707 z"
           transform="matrix(0.26458333,0,0,0.26458333,47.620694,155.65396)" />
        <path
           id="path4736"
           style="fill:#0ac282;fill-opacity:1;stroke:none;stroke-width:0.3;stroke-linecap:round;stroke-linejoin:round"
           d="m 350.06445,192.22266 a 14.976923,17.97468 0 0 0 -14.97656,17.97461 14.976923,17.97468 0 0 0 0.41211,4.14843 c 0.33881,0.14526 0.70232,0.271 1.09766,0.36914 7.70188,1.91207 6.18072,-19.03634 14.11523,-19.17187 7.60991,-0.12978 7.18224,19.81405 13.9668,18.56836 a 14.976923,17.97468 0 0 0 0.36328,-3.91406 14.976923,17.97468 0 0 0 -14.97852,-17.97461 z"
           transform="matrix(0.26458333,0,0,0.26458333,47.620694,155.65396)" />
      </g>
      <g
         id="g10358"
         transform="matrix(-0.99972142,0.0236028,0.0236028,0.99972142,274.78865,-4.0564333)"
         style="stroke-width:1;stroke-miterlimit:4;stroke-dasharray:none"
         inkscape:label="arm">
        <path
           id="path10354"
           style="fill:#0ac282;fill-opacity:1;stroke:none;stroke-width:3.77953;stroke-linecap:round;stroke-linejoin:round;stroke-miterlimit:4;stroke-dasharray:none;stroke-opacity:1"
           d="m 143.29102,118.19727 -10.27149,7.51171 c -1.58041,6.40132 7.36077,11.30249 8.7207,17.75196 0.59252,2.81 -0.3888,5.79221 -0.79687,8.68945 3.84851,-6.10745 8.64806,-11.8035 13.00586,-17.70117 -1.68015,-6.53269 -4.29325,-15.04207 -10.6582,-16.25195 z"
           transform="matrix(-0.26450962,0.00624491,0.00624491,0.26450962,170.34236,162.63273)"
           inkscape:label="shadow" />
        <path
           sodipodi:nodetypes="caaaaac"
           d="m 133.25872,193.41495 c -1.7762,0.37123 -2.4014,2.88656 -2.81199,4.65015 -0.32733,1.40599 -0.26541,3.01959 0.3741,4.31493 0.48359,0.97959 1.32982,2.29582 2.42086,2.21341 0.40314,-0.0304 0.63691,-0.55857 0.75981,-0.94279 0.3623,-1.13224 -0.43531,-2.39275 -0.21125,-3.56016 0.32871,-1.71269 2.67059,-3.05215 2.22171,-4.73795"
           style="fill:#0de99d;fill-opacity:1;stroke:none;stroke-width:1;stroke-linecap:round;stroke-linejoin:round;stroke-miterlimit:4;stroke-dasharray:none;stroke-opacity:1"
           id="path10356"
           inkscape:label="arm" />
      </g>
      <g
         id="g49887"
         transform="rotate(-2.0701605,131.76753,196.06524)"
         inkscape:label="book">
        <path
           style="fill:#e5e5ce;fill-opacity:1;stroke:none;stroke-width:0.264583px;stroke-linecap:butt;stroke-linejoin:miter;stroke-opacity:1"
           d="m 133.73225,196.94144 c 1.59347,0.8501 3.95599,1.09427 5.34419,2.35478 1.5356,-1.36892 4.09064,-1.52573 5.96029,-2.43779 l 0.78559,0.74013 -5.88241,2.89167 c 0,0 -0.52136,-0.36623 -0.82116,-0.36687 -0.29811,-6.4e-4 -0.81811,0.36131 -0.81811,0.36131 l -5.61067,-2.98126 z"
           id="path50269"
           sodipodi:nodetypes="cccccsccc" />
        <path
           id="rect10418-3"
           style="fill:#b25959;fill-opacity:1;stroke:none;stroke-width:0.264583;stroke-linecap:round;stroke-linejoin:round;stroke-miterlimit:10;stroke-dasharray:none"
           d="m 146.26723,197.28522 c -0.0328,-0.41646 -0.44599,-0.2831 -0.77408,-0.10253 -1.73261,0.76857 -3.46522,1.53717 -5.19782,2.30574 -0.0556,2.95549 -0.1111,5.91096 -0.16665,8.86643 1.89046,-0.88704 3.78096,-1.76643 5.67136,-2.65824 0.43944,-0.18764 0.34508,-0.67664 0.36147,-0.99866 0.0471,-2.3629 0.10633,-4.73148 0.14603,-7.09079 -0.007,-0.11091 -0.0154,-0.22206 -0.0403,-0.32196 z"
           sodipodi:nodetypes="sccccccs" />
        <path
           id="path38018"
           style="fill:#b25959;fill-opacity:1;stroke:none;stroke-width:0.264583;stroke-linecap:round;stroke-linejoin:round;stroke-miterlimit:10;stroke-dasharray:none"
           d="m 132.0462,197.28522 c 0.0328,-0.41646 0.44599,-0.2831 0.77408,-0.10253 1.73261,0.76857 3.46522,1.53717 5.19782,2.30574 0.0556,2.95549 0.1111,5.91096 0.16665,8.86643 -1.89046,-0.88704 -3.78096,-1.76643 -5.67136,-2.65824 -0.43944,-0.18764 -0.34508,-0.67664 -0.36147,-0.99866 -0.0471,-2.3629 -0.10633,-4.73148 -0.14603,-7.09079 0.007,-0.11091 0.0154,-0.22206 0.0403,-0.32196 z"
           sodipodi:nodetypes="sccccccs" />
        <path
           style="fill:#994d4d;fill-opacity:1;stroke:none;stroke-width:0.264583px;stroke-linecap:butt;stroke-linejoin:miter;stroke-opacity:1"
           d="m 138.0181,199.48843 h 2.27723 l -0.16665,8.86643 h -1.94393 z"
           id="path38053"
           sodipodi:nodetypes="ccccc" />
      </g>
      <g
         id="g72895"
         transform="matrix(-0.99972142,0.0236028,0.0236028,0.99972142,274.78865,-4.0564333)"
         style="stroke-width:1;stroke-miterlimit:4;stroke-dasharray:none"
         inkscape:label="hand">
        <path
           sodipodi:nodetypes="saaaas"
           d="m 132.33443,199.70965 c 0.0142,1.09214 -1.20921,1.84298 -0.96596,2.79979 0.2694,1.05969 1.33061,2.29632 2.42086,2.21341 0.40246,-0.0306 0.63686,-0.55835 0.75981,-0.94279 0.36213,-1.13231 0.54578,-2.64355 -0.21125,-3.56016 -0.43884,-0.53134 -2.02041,-1.81318 -2.00346,-0.51025 z"
           style="fill:#000000;fill-opacity:0.2;stroke:none;stroke-width:1;stroke-linecap:round;stroke-linejoin:round;stroke-miterlimit:4;stroke-dasharray:none;stroke-opacity:0.2"
           id="path73596"
           inkscape:label="shadow" />
        <path
           sodipodi:nodetypes="saaaas"
           d="m 130.44673,198.0651 c 0.0142,1.09214 -0.26464,3.02021 0.3741,4.31493 0.48375,0.98057 1.33061,2.29632 2.42086,2.21341 0.40246,-0.0306 0.63686,-0.55835 0.75981,-0.94279 0.36213,-1.13231 0.40272,-2.54217 -0.21125,-3.56016 -0.67297,-1.11581 -3.36047,-3.32832 -3.34352,-2.02539 z"
           style="fill:#0de99d;fill-opacity:1;stroke:none;stroke-width:1;stroke-linecap:round;stroke-linejoin:round;stroke-miterlimit:4;stroke-dasharray:none;stroke-opacity:1"
           id="path72893"
           inkscape:label="hand" />
      </g>
      <g
         id="g73826"
         inkscape:label="hand2"
         transform="translate(-0.29378195,1.4328683)">
        <path
           sodipodi:nodetypes="aaaaaa"
           d="m 131.47773,199.80668 c -0.5472,0.29065 -0.5745,1.22416 -0.39339,1.8167 0.28585,0.93518 1.14124,2.08123 2.11779,2.03011 0.36048,-0.0189 0.60142,-0.47944 0.69925,-0.8269 0.19964,-0.70903 0.1214,-1.60725 -0.33681,-2.18397 -0.46616,-0.5867 -1.42506,-1.18746 -2.08684,-0.83594 z"
           style="fill:#000000;fill-opacity:0.2;stroke:none;stroke-width:1;stroke-linecap:round;stroke-linejoin:round;stroke-miterlimit:4;stroke-dasharray:none;stroke-opacity:1"
           id="path74311"
           inkscape:label="shadow" />
        <path
           sodipodi:nodetypes="aaaaaa"
           d="m 130.60634,199.35878 c -0.61184,0.32499 -0.64236,1.36877 -0.43985,2.0313 0.31961,1.04565 1.27604,2.32708 2.36795,2.26993 0.40306,-0.0211 0.67246,-0.53608 0.78185,-0.92459 0.22322,-0.79278 0.13575,-1.79711 -0.3766,-2.44195 -0.52122,-0.65601 -1.5934,-1.32773 -2.33335,-0.93469 z"
           style="fill:#0de99d;fill-opacity:1;stroke:none;stroke-width:1;stroke-linecap:round;stroke-linejoin:round;stroke-miterlimit:4;stroke-dasharray:none;stroke-opacity:1"
           id="path73824"
           inkscape:label="hand" />
      </g>
    </g>
  </g>
</svg>
