<?xml version="1.0" encoding="UTF-8" standalone="no"?>
<svg
   xml:space="preserve"
   width="60mm"
   height="60mm"
   viewBox="0 0 59.999996 60"
   version="1.1"
   id="svg8"
   inkscape:version="1.2.2 (b0a8486541, 2022-12-01)"
   sodipodi:docname="logo.svg"
   inkscape:export-filename="logo.png"
   inkscape:export-xdpi="100"
   inkscape:export-ydpi="100"
   xmlns:inkscape="http://www.inkscape.org/namespaces/inkscape"
   xmlns:sodipodi="http://sodipodi.sourceforge.net/DTD/sodipodi-0.dtd"
   xmlns="http://www.w3.org/2000/svg"
   xmlns:svg="http://www.w3.org/2000/svg"
   xmlns:rdf="http://www.w3.org/1999/02/22-rdf-syntax-ns#"
   xmlns:cc="http://creativecommons.org/ns#"
   xmlns:dc="http://purl.org/dc/elements/1.1/"><defs
     id="defs2"><inkscape:perspective
       sodipodi:type="inkscape:persp3d"
       inkscape:vp_x="0 : 30 : 1"
       inkscape:vp_y="0 : 1000 : 0"
       inkscape:vp_z="59.999996 : 30 : 1"
       inkscape:persp3d-origin="29.999998 : 20 : 1"
       id="perspective1143" /></defs><sodipodi:namedview
     inkscape:snap-global="true"
     inkscape:snap-object-midpoints="true"
     inkscape:document-rotation="0"
     inkscape:window-maximized="1"
     inkscape:window-y="0"
     inkscape:window-x="0"
     inkscape:window-height="1037"
     inkscape:window-width="1916"
     fit-margin-bottom="1"
     fit-margin-right="1"
     fit-margin-top="1"
     fit-margin-left="1"
     showgrid="false"
     inkscape:current-layer="g16183"
     inkscape:document-units="mm"
     inkscape:cy="72.035407"
     inkscape:cx="254.92142"
     inkscape:zoom="1.4298524"
     inkscape:pageshadow="2"
     inkscape:pageopacity="0.0"
     borderopacity="1.0"
     bordercolor="#666666"
     pagecolor="#ffffff"
     id="base"
     inkscape:pagecheckerboard="0"
     inkscape:showpageshadow="2"
     inkscape:deskcolor="#d1d1d1" /><metadata
     id="metadata5"><rdf:RDF><cc:Work
         rdf:about=""><dc:format>image/svg+xml</dc:format><dc:type
           rdf:resource="http://purl.org/dc/dcmitype/StillImage" /></cc:Work></rdf:RDF></metadata><g
     transform="translate(-85.2379, -59.4404)"
     id="layer1"
     inkscape:label="Calque 1"
     inkscape:groupmode="layer"><g
       id="g3659"><g
         id="g4440"
         transform="matrix(0.988587 0.150653 -0.150653 0.988587 13.1089 -16.4895)"><g
           id="g16336"
           transform="rotate(1.3241451,103.82311,-46.619666)"><g
             id="g16183"
             style="stroke-width:0.75;stroke-dasharray:none"
             transform="rotate(13.788924,125.48201,125.06596)"><g
               id="g354"><path
                 style="fill:#eae5e1;fill-opacity:1;stroke:none;stroke-width:0.499999;stroke-linecap:round;stroke-linejoin:round;stroke-dasharray:none;stroke-opacity:1"
                 d="m 115.07872,82.988444 c 0,0 -6.67748,-4.047534 -5.83899,-8.307156 0.83081,-4.220594 -2.70515,-6.74221 -7.6673,-7.561833 -5.675536,-0.937457 -11.910679,-1.064521 -11.910679,-1.064521 0,0 6.178197,0.219837 9.267854,0.312208 3.667735,0.109654 7.458965,1.233049 11.004365,0.287298 4.04684,-1.079513 10.72858,-6.540471 10.72858,-6.540471"
                 id="path20300"
                 sodipodi:nodetypes="csscaac"
                 transform="rotate(-15.113069,121.78173,110.31775)" /><path
                 style="fill:#ffc4c4;fill-opacity:1;stroke:none;stroke-width:0.499999;stroke-linecap:round;stroke-linejoin:round;stroke-dasharray:none;stroke-opacity:1"
                 d="m 110.0084,110.35948 c -5.50078,-5.50539 -9.52781,-8.8993 -12.975045,-14.349007 C 94.31409,91.7116 91.19118,81.912906 91.19118,81.912906 c 0,0 4.754445,13.305852 9.53887,18.212344 2.10806,2.16184 8.61913,9.16584 7.9161,4.40369"
                 id="path20028"
                 sodipodi:nodetypes="cacac"
                 transform="rotate(-15.113069,121.78173,110.31775)" /><path
                 id="path19963"
                 style="fill:#ffcbcb;fill-opacity:1;stroke:none;stroke-width:0.499999;stroke-linecap:round;stroke-linejoin:round;stroke-dasharray:none;stroke-opacity:1"
                 d="m 91.992011,76.762652 c 0,0 9.884939,3.248936 13.556109,6.703477 1.65202,1.554529 3.8834,3.728812 5.77129,5.984471 l -0.49897,-2.540225 c -1.3977,-1.618526 -2.86568,-3.140459 -4.72661,-4.315684 -4.30087,-2.716105 -14.101819,-5.832039 -14.101819,-5.832039 z m 21.480969,13.274015 0.67982,3.459331 c 1.07508,2.042998 1.34176,3.869264 0.013,5.021454 l 6.28661,-2.95852 c -3.02266,-1.372407 -5.11401,-3.395185 -6.97945,-5.522265 z"
                 transform="rotate(-15.113069,121.78173,110.31775)" /><g
                 id="g16314"
                 transform="rotate(-13.788924,129.85083,139.32192)"><path
                   id="path1001"
                   style="fill:#ff9999;fill-opacity:1;stroke:none;stroke-width:0.5;stroke-linecap:round;stroke-linejoin:round;stroke-opacity:1"
                   d="m 126.49598,94.165439 c -0.27602,-0.0699 -0.56212,-0.101668 -0.83847,-0.09671 -0.63917,0.01145 -1.32794,0.211924 -1.81093,0.630883 l -6.79606,5.895338 c -0.35604,0.30893 -0.32098,0.92187 -0.2635,1.38964 0.0539,0.4351 0.20867,0.92207 0.55254,1.19397 l 6.41636,5.07673 c 0,0 1.11044,0.75966 1.74985,0.7915 0.65261,0.0325 1.37858,-0.18174 1.85735,-0.62662 l 6.6353,-6.16529 c 0.36615,-0.34067 0.4666,-0.95438 0.39088,-1.44878 -0.0886,-0.57787 -0.48328,-1.117594 -0.9426,-1.478946 l -5.97836,-4.699548 c -0.27941,-0.219653 -0.61755,-0.372528 -0.97242,-0.462432 z m -0.78091,2.082817 c 0.0655,0.01707 0.12981,0.03708 0.19234,0.06021 0.22824,0.08427 0.4576,0.227323 0.58766,0.433041 0.12864,0.203383 0.19387,0.474875 0.13768,0.708933 -0.074,0.309871 -0.32371,0.575888 -0.5882,0.753124 -0.19966,0.133556 -0.45416,0.17673 -0.69376,0.193161 -0.22606,0.01555 -0.46124,-0.01316 -0.67397,-0.09123 -0.21224,-0.07799 -0.42443,-0.19356 -0.57124,-0.365603 -0.13354,-0.156674 -0.24103,-0.360213 -0.2472,-0.566006 -0.007,-0.243393 0.0981,-0.496806 0.25188,-0.685666 0.18166,-0.223302 0.45336,-0.387884 0.73275,-0.456981 0.28045,-0.06935 0.5878,-0.05632 0.87195,0.01704 z m 4.84996,3.58715 c 0.0573,0.01558 0.11379,0.03445 0.16898,0.05482 0.24115,0.08908 0.48318,0.240084 0.62062,0.457424 0.13589,0.21493 0.20512,0.50142 0.1458,0.74872 -0.0783,0.32739 -0.34187,0.60867 -0.62159,0.79581 -0.21111,0.14081 -0.48012,0.18654 -0.73321,0.20399 -0.23889,0.0164 -0.48695,-0.0138 -0.71169,-0.0963 -0.22427,-0.0824 -0.4486,-0.2043 -0.60369,-0.38615 -0.14122,-0.16542 -0.25461,-0.38089 -0.26107,-0.59837 -0.008,-0.25714 0.10421,-0.52489 0.26637,-0.72452 0.19195,-0.23591 0.47897,-0.409641 0.7739,-0.483039 0.30777,-0.07605 0.6456,-0.05833 0.95534,0.02722 z m -9.239,0.478894 c 0.0655,0.0171 0.12974,0.0371 0.19233,0.0602 0.22822,0.0844 0.45758,0.22733 0.58765,0.43306 0.12872,0.20332 0.19387,0.47487 0.13768,0.70893 -0.074,0.30988 -0.32372,0.57589 -0.58819,0.75312 -0.19964,0.13354 -0.45423,0.17665 -0.69381,0.19311 -0.22586,0.0156 -0.46086,-0.0131 -0.67344,-0.0911 l -4.9e-4,-1.3e-4 c -0.2121,-0.078 -0.42465,-0.19349 -0.57125,-0.36562 -0.1334,-0.1568 -0.24059,-0.36005 -0.24667,-0.5659 -0.007,-0.24338 0.0981,-0.49732 0.25152,-0.68629 0.18147,-0.22341 0.45373,-0.38726 0.73314,-0.45628 0.28048,-0.0693 0.5873,-0.0565 0.87145,0.0169 z m 4.62893,3.62385 c 0.0692,0.0177 0.13701,0.0388 0.20305,0.0636 0.24111,0.0892 0.48365,0.24025 0.62109,0.45756 0.13589,0.21493 0.20522,0.5014 0.14583,0.74872 -0.0783,0.32735 -0.34189,0.60868 -0.6216,0.79582 -0.21111,0.1408 -0.4801,0.18653 -0.73322,0.20398 -0.23887,0.0165 -0.48693,-0.0138 -0.71169,-0.0963 -0.22426,-0.0824 -0.44829,-0.20507 -0.60367,-0.38616 -0.14124,-0.16544 -0.25461,-0.38089 -0.26109,-0.59836 -0.008,-0.25715 0.10422,-0.52496 0.26628,-0.72455 0.19196,-0.23592 0.47887,-0.40911 0.77412,-0.482 0.29635,-0.0732 0.6207,-0.0597 0.92091,0.0178 z" /><path
                   id="path3717"
                   style="fill:#ff8080;fill-opacity:1;stroke:none;stroke-width:0.5;stroke-linecap:round;stroke-linejoin:round;stroke-opacity:1"
                   d="m 134.92441,103.22691 c -0.0159,-0.005 -0.032,-0.009 -0.0482,-0.0129 -0.40043,-0.0835 -0.84947,0.15927 -1.14478,0.4425 l -6.49385,6.22207 c -0.30496,0.29222 -0.52029,0.67847 -0.67925,1.0698 -0.17192,0.4233 -0.29263,0.88483 -0.28052,1.34157 l 0.0996,3.77933 c 0.006,0.23352 0.22722,0.4367 0.42932,0.55358 0.16203,0.094 0.37047,0.10125 0.55649,0.0781 0.28512,-0.0352 0.59586,-0.12046 0.79927,-0.32338 l 5.91004,-5.89772 c 0.25625,-0.25582 0.46911,-0.55393 0.67056,-0.85483 0.19665,-0.29346 0.39386,-0.59333 0.52203,-0.92255 0.0806,-0.20688 0.1418,-0.4259 0.15001,-0.64906 l 0.12881,-3.56913 c 0.008,-0.22126 0.0116,-0.49236 -0.094,-0.70435 -0.11218,-0.22553 -0.287,-0.47727 -0.52519,-0.55289 z m -3.08784,5.89806 c 0.0197,0.004 0.0385,0.0121 0.0569,0.0264 0.17475,0.13444 -0.0212,0.44922 -0.10313,0.65398 -0.12546,0.3133 -0.35147,0.58049 -0.57565,0.83273 -0.15976,0.1799 -0.33016,0.36238 -0.54141,0.47734 -0.12544,0.0676 -0.30844,0.21287 -0.41158,0.11454 -0.14372,-0.1372 0.0564,-0.39779 0.13196,-0.58154 0.10615,-0.25782 0.26939,-0.49073 0.44199,-0.70968 0.16357,-0.20764 0.33888,-0.41485 0.55621,-0.56515 0.13189,-0.0906 0.30649,-0.27805 0.44515,-0.24868 z" /><path
                   id="path3719"
                   style="fill:#ff8a8a;fill-opacity:1;stroke:none;stroke-width:0.5;stroke-linecap:round;stroke-linejoin:bevel;stroke-opacity:1"
                   d="m 116.06992,103.33154 c -0.21749,-0.0555 -0.45595,-0.099 -0.62084,0.0533 -0.18639,0.17201 -0.21575,0.44737 -0.15203,0.6929 l 1.09412,4.21132 c 0.0493,0.18843 0.18931,0.38694 0.29385,0.55143 0.1338,0.21258 0.2597,0.40072 0.40822,0.60326 0.21623,0.29599 0.45828,0.5593 0.70373,0.83154 0.12838,0.14234 0.26101,0.28297 0.4087,0.40507 l 6.07755,5.01659 c 0.15956,0.13158 0.34307,0.2442 0.54057,0.30589 0.10224,0.0323 0.22094,0.0688 0.32046,0.0287 0.0667,-0.0264 0.10985,-0.0981 0.14093,-0.16276 0.0645,-0.13297 0.0904,-0.28809 0.0818,-0.4356 l -0.19129,-3.24227 c -0.0261,-0.44296 -0.24043,-0.89707 -0.45367,-1.3055 -0.16871,-0.32264 -0.40792,-0.60502 -0.64164,-0.88415 -0.38222,-0.4566 -0.84003,-0.9579 -1.23862,-1.28701 l -5.91852,-4.88889 c -0.25401,-0.20986 -0.53359,-0.41284 -0.8529,-0.49401 z m 5.49028,6.03689 c 0.0954,0.0215 0.20832,0.13054 0.29506,0.18509 0.26043,0.16376 0.4798,0.3892 0.68269,0.62048 0.19609,0.22383 0.37624,0.46718 0.50958,0.73321 0.0682,0.13524 0.2556,0.32881 0.14361,0.4308 -0.11832,0.10712 -0.30589,-0.10326 -0.43784,-0.19282 -0.29813,-0.20398 -0.53379,-0.48963 -0.76724,-0.76531 -0.1462,-0.17252 -0.29395,-0.35012 -0.39408,-0.55288 -0.0673,-0.13562 -0.24485,-0.33184 -0.13315,-0.43426 0.0297,-0.0271 0.0638,-0.0321 0.10129,-0.0241 z m -2.08714,-0.3075 c 0.0955,0.0215 0.2079,0.12996 0.29467,0.18451 0.26042,0.16375 0.48012,0.38986 0.68309,0.62107 0.19608,0.22382 0.37639,0.46664 0.50974,0.7327 0.0681,0.135 0.25494,0.32871 0.14361,0.43079 l -1.5e-4,4.9e-4 c -0.11806,0.10681 -0.30643,-0.10356 -0.43829,-0.19305 -0.2981,-0.20395 -0.53358,-0.49015 -0.76711,-0.76576 -0.1462,-0.17253 -0.29357,-0.34951 -0.39369,-0.55227 -0.0673,-0.13564 -0.24531,-0.33199 -0.13365,-0.4344 0.0297,-0.0271 0.0642,-0.0324 0.10185,-0.0238 z m -1.90263,-0.15905 c 0.0954,0.0215 0.20832,0.13054 0.29506,0.18509 0.26042,0.16376 0.4798,0.3892 0.68278,0.62041 0.19608,0.22381 0.37632,0.46711 0.50957,0.73319 0.0682,0.13514 0.25552,0.32887 0.14361,0.43079 -0.11832,0.10713 -0.30587,-0.10325 -0.43783,-0.19281 -0.29812,-0.20397 -0.53371,-0.4897 -0.76724,-0.76529 -0.1462,-0.17252 -0.29394,-0.35009 -0.39409,-0.5529 -0.0673,-0.13562 -0.24484,-0.33183 -0.13313,-0.43425 0.0297,-0.027 0.0634,-0.0331 0.10119,-0.0241 z"
                   sodipodi:nodetypes="ccccccsccccccccscccscccccccssscsscccccssscscccccss" /></g><path
                 id="circle1485-6"
                 style="fill:#eae5e1;fill-opacity:1;stroke:#c1b0a4;stroke-width:0.499998;stroke-linecap:round;stroke-linejoin:round;stroke-dasharray:none;stroke-opacity:1"
                 d="m 123.65428,89.778448 1.07293,-2.816093 c 6.81771,-0.392861 12.30646,-5.620765 12.9366,-12.321809 0.70473,-7.514931 -4.90784,-14.199353 -12.5362,-14.930269 -7.62838,-0.730629 -14.38377,4.768971 -15.08879,12.283881 -0.61198,6.574437 3.63476,12.662543 10.09051,14.465836 l 0.54208,3.032704"
                 sodipodi:nodetypes="ccccccc"
                 transform="rotate(-13.788924,125.48202,125.06595)" /><g
                 id="g16027"
                 style="fill:#dcd2cb;fill-opacity:1"
                 transform="translate(-3.271944,1.4521398)"><path
                   style="fill:#dcd2cb;fill-opacity:1;stroke:none;stroke-width:0.499999;stroke-linecap:round;stroke-linejoin:round;stroke-dasharray:none;stroke-opacity:1"
                   d="m 113.8988,87.398081 c 0,0 -1.78657,-1.450906 -2.76244,-2.054833 -2.53281,-1.567459 -7.97174,-4.037296 -7.97174,-4.037296 0,0 2.21294,2.571782 3.56728,3.569467 0.94863,0.698813 2.02941,1.220643 3.12853,1.645118 0.89553,0.345851 1.84538,0.540659 2.78831,0.720868 0.41248,0.07883 1.25006,0.156676 1.25006,0.156676 z"
                   id="path15624"
                   sodipodi:nodetypes="cscsssc" /><path
                   style="fill:#dcd2cb;fill-opacity:1;stroke:none;stroke-width:0.499999;stroke-linecap:round;stroke-linejoin:round;stroke-dasharray:none;stroke-opacity:1"
                   d="m 123.37563,84.688012 c 0,0 1.13371,-2.07658 1.34884,-3.220323 0.43378,-2.306231 1.50204,-5.396052 -0.17468,-7.037846 -1.99029,-1.948838 -3.28828,-3.507844 -6.58657,-3.374133 -3.38745,0.137325 -8.94158,0.825502 -11.65005,1.849443 -2.07539,0.784603 -5.19688,2.308649 -5.33185,1.435858 -1.158146,-7.489197 14.07063,-6.766536 21.64665,-6.948873 1.46197,-0.03519 3.0692,0.258064 4.23691,1.138442 0.89068,0.671519 1.43342,1.791133 1.72411,2.868053 0.44186,1.636982 0.22759,3.417155 -0.0711,5.086207 -0.1747,0.976214 -0.56946,1.9078 -0.99272,2.804664 -0.4536,0.961152 -1.00562,1.88218 -1.64393,2.731961 -0.52129,0.693988 -1.17091,1.281711 -1.76875,1.910955 -0.24232,0.255045 -0.73686,0.755592 -0.73686,0.755592 z"
                   id="path15499"
                   sodipodi:nodetypes="cassssaaaaaaac" /><path
                   style="fill:#dcd2cb;fill-opacity:1;stroke:none;stroke-width:0.499999;stroke-linecap:round;stroke-linejoin:round;stroke-dasharray:none;stroke-opacity:1"
                   d="m 118.86184,86.8001 c 0,0 -0.80829,-0.564972 -1.2773,-0.672472 -0.67967,-0.155785 -2.09068,0.07106 -2.09068,0.07106 0,0 1.01634,-0.595235 1.57833,-0.746515 0.56593,-0.152342 1.17015,-0.2179 1.75201,-0.147717 0.42579,0.05136 0.89194,0.133138 1.21962,0.409849 0.17503,0.147809 0.32492,0.605616 0.32492,0.605616"
                   id="path15438"
                   sodipodi:nodetypes="cacaaac" /></g><path
                 style="fill:#cbbdb3;fill-opacity:1;stroke:none;stroke-width:0.499999;stroke-linecap:round;stroke-linejoin:round;stroke-dasharray:none;stroke-opacity:1"
                 d="m 110.15963,71.339484 c 0,0 0.5135,-2.86602 1.21011,-4.114332 1.22606,-2.197046 2.91201,-4.27955 5.04447,-5.614742 2.02804,-1.269798 4.50883,-1.86772 6.89878,-1.983538 2.23748,-0.108431 4.55615,0.324801 6.60796,1.223767 1.6205,0.710002 3.10471,1.831656 4.24848,3.181444 1.36175,1.607015 2.26831,3.603724 2.90627,5.611166 0.46557,1.465042 0.63208,4.56819 0.63208,4.56819 0,0 -1.42205,-1.380585 -2.29266,-1.822154 -2.38662,-1.210467 -5.11295,-1.626833 -7.74319,-2.119824 -2.44431,-0.458148 -4.93405,-0.745047 -7.42082,-0.769669 -2.43038,-0.02406 -4.90948,0.01361 -7.26606,0.608452 -0.99611,0.25143 -2.82541,1.231235 -2.82541,1.231235 z"
                 id="path14855"
                 sodipodi:nodetypes="caaaaaacaaaac"
                 transform="rotate(-13.788924,125.48202,125.06595)" /><path
                 id="path2171"
                 style="fill:none;fill-opacity:1;stroke:#c1b0a4;stroke-width:0.75;stroke-linecap:round;stroke-linejoin:round;stroke-dasharray:none;stroke-opacity:1"
                 d="m 125.29405,73.190308 c -0.27946,-1.879006 -6.67465,-2.500367 -14.28487,-1.387931 -7.61086,1.11243 -13.452322,3.522672 -13.174732,5.402105"
                 sodipodi:nodetypes="ccc" /><path
                 style="fill:none;fill-opacity:1;stroke:#c1b0a4;stroke-width:0.75;stroke-linecap:round;stroke-linejoin:round;stroke-dasharray:none;stroke-opacity:1"
                 d="M 110.41478,99.108554 104.39505,86.891555"
                 id="path2811-7"
                 sodipodi:nodetypes="cc" /><path
                 style="fill:none;fill-opacity:1;stroke:#c1b0a4;stroke-width:0.75;stroke-linecap:round;stroke-linejoin:round;stroke-dasharray:none;stroke-opacity:1"
                 d="M 120.22664,96.759764 121.97743,84.32128"
                 id="path2813-5"
                 sodipodi:nodetypes="cc" /><path
                 style="fill:none;fill-opacity:1;stroke:#c1b0a4;stroke-width:0.75;stroke-linecap:round;stroke-linejoin:round;stroke-dasharray:none;stroke-opacity:1"
                 d="m 105.50546,74.581563 5.84941,19.150294"
                 id="path3036-3"
                 sodipodi:nodetypes="cc" /><path
                 style="fill:none;fill-opacity:1;stroke:#c1b0a4;stroke-width:0.75;stroke-linecap:round;stroke-linejoin:round;stroke-dasharray:none;stroke-opacity:1"
                 d="m 119.54757,73.325045 -1.67136,22.242481"
                 id="path3038-5"
                 sodipodi:nodetypes="cc" /><path
                 style="fill:none;fill-opacity:1;stroke:#c1b0a4;stroke-width:0.750001;stroke-linecap:round;stroke-linejoin:round;stroke-dasharray:none;stroke-opacity:1"
                 id="path3134"
                 sodipodi:type="arc"
                 sodipodi:cx="93.141403"
                 sodipodi:cy="87.567192"
                 sodipodi:rx="1.5928261"
                 sodipodi:ry="1.5165904"
                 sodipodi:start="6.1644732"
                 sodipodi:end="3.0619978"
                 sodipodi:arc-type="arc"
                 d="M 94.723019,87.387577 A 1.5928261,1.5165904 0 0 1 94.078871,88.793289 1.5928261,1.5165904 0 0 1 92.476004,88.94511 1.5928261,1.5165904 0 0 1 91.55362,87.687777"
                 sodipodi:open="true"
                 transform="matrix(0.98948327,-0.14464733,0.14660963,0.98919443,0,0)" /><path
                 style="fill:none;fill-opacity:1;stroke:#c1b0a4;stroke-width:0.750001;stroke-linecap:round;stroke-linejoin:round;stroke-dasharray:none;stroke-opacity:1"
                 id="path3136"
                 sodipodi:type="arc"
                 sodipodi:cx="107.80579"
                 sodipodi:cy="88.356865"
                 sodipodi:rx="1.5928261"
                 sodipodi:ry="1.5165904"
                 sodipodi:start="6.1644732"
                 sodipodi:end="3.6673797"
                 sodipodi:arc-type="arc"
                 d="m 109.38741,88.17725 a 1.5928261,1.5165904 0 0 1 -0.92127,1.559734 1.5928261,1.5165904 0 0 1 -1.84062,-0.361715 1.5928261,1.5165904 0 0 1 -0.19741,-1.779572"
                 sodipodi:open="true"
                 transform="matrix(0.98948327,-0.14464733,0.14660963,0.98919443,0,0)" /><path
                 style="fill:none;fill-opacity:1;stroke:#c1b0a4;stroke-width:0.75;stroke-linecap:round;stroke-linejoin:round;stroke-dasharray:none;stroke-opacity:1"
                 d="m 99.707508,82.320932 c 0,0 1.488972,1.067185 2.961242,0.364598 3.12523,-1.491394 2.83671,-8.103967 2.83671,-8.103967 0,0 2.78378,6.270167 7.46097,5.949892 4.67719,-0.320275 6.58114,-7.20641 6.58114,-7.20641 0,0 1.39392,4.779626 3.46169,5.431026 0.7378,0.232427 2.15327,-0.870398 2.15327,-0.870398"
                 id="path3234"
                 sodipodi:nodetypes="csczcsc" /><path
                 id="path15064"
                 style="fill:none;fill-opacity:1;stroke:#c1b0a4;stroke-width:0.75;stroke-linecap:round;stroke-linejoin:round;stroke-dasharray:none;stroke-opacity:1"
                 d="m 115.29632,91.231052 0.37081,-2.990663 c 6.52759,-2.006509 10.6121,-8.391967 9.62692,-15.050081 -1.10674,-7.466324 -8.15077,-12.620368 -15.73348,-11.512035 -7.58268,1.108617 -12.832577,8.05984 -11.726122,15.526209 0.97265,6.530828 6.548062,11.431288 13.247582,11.643908 l 1.24928,2.8161"
                 sodipodi:nodetypes="ccccccc" /></g></g></g></g></g></g></svg>
